<svg id="Layer_1" data-name="Layer 1" xmlns="http://www.w3.org/2000/svg" viewBox="0 0 100 100"><title>Artboard 12</title><path d="M88.5,20h-17c-.28-6.11-5.69-11-12.31-11H40.84c-6.62,0-12,4.89-12.31,11H9.5A1.5,1.5,0,0,0,8,21.5v13A1.5,1.5,0,0,0,9.5,36h8.59a1.49,1.49,0,0,0-.09.5v50A1.5,1.5,0,0,0,19.5,88h60A1.5,1.5,0,0,0,81,86.5v-50a1.49,1.49,0,0,0-.09-.5H88.5A1.5,1.5,0,0,0,90,34.5v-13A1.5,1.5,0,0,0,88.5,20ZM40.84,12H59.16c5,0,9,3.55,9.31,8H31.53C31.81,15.55,35.88,12,40.84,12ZM78,36.5V85H21V36.5a1.49,1.49,0,0,0-.09-.5H78.09A1.49,1.49,0,0,0,78,36.5ZM87,33H11V23H87Z"/><path d="M37.5,72A1.5,1.5,0,0,0,39,70.5v-23a1.5,1.5,0,0,0-3,0v23A1.5,1.5,0,0,0,37.5,72Z"/><path d="M50.5,72A1.5,1.5,0,0,0,52,70.5v-23a1.5,1.5,0,0,0-3,0v23A1.5,1.5,0,0,0,50.5,72Z"/><path d="M63.5,72A1.5,1.5,0,0,0,65,70.5v-23a1.5,1.5,0,0,0-3,0v23A1.5,1.5,0,0,0,63.5,72Z"/></svg>